<?xml version="1.0" encoding="utf-8"?>
<!-- Generator: Adobe Illustrator 22.0.1, SVG Export Plug-In . SVG Version: 6.00 Build 0)  -->
<svg version="1.1" id="Layer_1" xmlns="http://www.w3.org/2000/svg" xmlns:xlink="http://www.w3.org/1999/xlink" x="0px" y="0px"
	 viewBox="0 0 2327.9 6440.8" style="enable-background:new 0 0 2327.9 6440.8;" xml:space="preserve">
<style type="text/css">
	.st0{fill:none;stroke:#58595B;stroke-miterlimit:10;}
	.st1{fill:none;stroke:#231F20;stroke-width:2;stroke-miterlimit:10;}
	.st2{font-family:'AvenirNext-Regular';}
	.st3{font-size:36px;}
	.st4{font-size:24px;}
	.st5{font-size:23.3983px;}
	.st6{font-size:18px;}
	.st7{font-family:'AvenirNext-Bold';}
	.st8{font-size:48px;}
	.st9{fill:none;stroke:#231F20;stroke-miterlimit:10;}
</style>
<g>
	<defs>
		<rect id="SVGID_1_" x="996.8" y="220.5" width="379.1" height="3034"/>
	</defs>
	<clipPath id="SVGID_2_">
		<use xlink:href="#SVGID_1_"  style="overflow:visible;"/>
	</clipPath>
	<g transform="matrix(1 0 0 1 6.103516e-05 0)" style="clip-path:url(#SVGID_2_);">
		
			<image style="overflow:visible;" width="1000" height="16124" xlink:href="../../Source/Adobe.com.png"  transform="matrix(0.3791 0 0 0.3791 996.8037 220.4763)">
		</image>
	</g>
</g>
<g>
	
		<image style="overflow:visible;" width="1000" height="16124" xlink:href="../../Source/Adobe.com.png"  transform="matrix(0.3791 0 0 0.3791 166.383 220.4763)">
	</image>
</g>
<g>
	<defs>
		<rect id="SVGID_3_" x="996.8" y="3254.4" width="379.1" height="297.7"/>
	</defs>
	<clipPath id="SVGID_4_">
		<use xlink:href="#SVGID_3_"  style="overflow:visible;"/>
	</clipPath>
	<g transform="matrix(1 0 0 1 6.103516e-05 0)" style="clip-path:url(#SVGID_4_);">
		
			<image style="overflow:visible;" width="1000" height="16124" xlink:href="../../Source/Adobe.com.png"  transform="matrix(0.3791 0 0 0.3791 996.8037 -2560.2864)">
		</image>
	</g>
</g>
<rect x="996.8" y="220.5" class="st0" width="379.1" height="3370.7"/>
<rect x="166.2" y="220.5" class="st0" width="379.1" height="6112.5"/>
<rect x="754.3" y="196.5" class="st1" width="667.5" height="578.4"/>
<text transform="matrix(1 0 0 1 774.2754 237.7081)" class="st2 st3">Header</text>
<rect x="754.3" y="785.6" class="st1" width="667.5" height="2468.8"/>
<text transform="matrix(1 0 0 1 774.2754 831.3088)" class="st2 st3">Main</text>
<rect x="754.3" y="3263.6" class="st1" width="667.5" height="342.8"/>
<text transform="matrix(1 0 0 1 774.2754 3323.7102)" class="st2 st3">Footer</text>
<rect x="886.4" y="857.3" class="st1" width="509.5" height="358.2"/>
<text transform="matrix(1 0 0 1 901.7284 888.1757)" class="st2 st4">Section</text>
<rect x="886.4" y="1223" class="st1" width="509.5" height="360.7"/>
<text transform="matrix(1.0257 0 0 1 901.7286 1252.8799)" class="st2 st5">Section</text>
<rect x="886.4" y="1589" class="st1" width="509.5" height="378.7"/>
<text transform="matrix(1.0257 0 0 1 901.7286 1618.8799)" class="st2 st5">Section</text>
<rect x="886.4" y="1973" class="st1" width="509.5" height="352.7"/>
<text transform="matrix(1.0257 0 0 1 901.7286 2002.8799)" class="st2 st5">Section</text>
<rect x="886.4" y="2331" class="st1" width="509.5" height="360.3"/>
<text transform="matrix(1.0257 0 0 1 901.7286 2360.8799)" class="st2 st5">Section</text>
<rect x="886.4" y="2696.6" class="st1" width="509.5" height="540.5"/>
<text transform="matrix(1.0257 0 0 1 901.7286 2726.5205)" class="st2 st5">Section</text>
<g>
	<defs>
		<rect id="SVGID_5_" x="1803.3" y="196.5" width="379.1" height="557.8"/>
	</defs>
	<clipPath id="SVGID_6_">
		<use xlink:href="#SVGID_5_"  style="overflow:visible;"/>
	</clipPath>
	<g transform="matrix(1 0 0 1 0 0)" style="clip-path:url(#SVGID_6_);">
		
			<image style="overflow:visible;" width="1000" height="16124" xlink:href="../../Source/Adobe.com.png"  transform="matrix(0.3791 0 0 0.3791 1803.3466 -2279.6372)">
		</image>
	</g>
</g>
<rect x="1601.2" y="196.5" class="st1" width="601.2" height="557.8"/>
<text transform="matrix(1.0257 0 0 1 1618.0188 226.407)" class="st2 st5">Section</text>
<text transform="matrix(1.0257 0 0 1 1739.2153 226.407)" class="st2 st6">img</text>
<rect x="886.4" y="794.9" class="st1" width="509.5" height="54.9"/>
<text transform="matrix(1 0 0 1 901.7284 822.3856)" class="st2 st4">Section</text>
<text transform="matrix(1 0 0 1 281.8015 142.3623)" class="st7 st8">Stap 1</text>
<text transform="matrix(1 0 0 1 1014.0435 142.3623)" class="st7 st8">Stap 2</text>
<text transform="matrix(1 0 0 1 1873.733 142.3623)" class="st7 st8">Stap 3</text>
<rect x="1730.6" y="200.9" class="st9" width="461.6" height="293.1"/>
<text transform="matrix(1.0257 0 0 1 1739.2153 544.4404)" class="st2 st6">H2</text>
<rect x="1730.6" y="518.9" class="st9" width="461.6" height="81.9"/>
<text transform="matrix(1.0257 0 0 1 1739.2153 632.974)" class="st2 st6">p</text>
<rect x="1730.6" y="607.4" class="st9" width="461.6" height="64.9"/>
<text transform="matrix(1.0257 0 0 1 1739.2153 698.401)" class="st2 st6">button</text>
<rect x="1730.6" y="675.2" class="st9" width="461.6" height="38.4"/>
<text transform="matrix(1.0257 0 0 1 1739.2153 734.8954)" class="st2 st6">a</text>
<rect x="1730.6" y="718.3" class="st9" width="461.6" height="25.2"/>
</svg>
